<?xml version="1.0" encoding="utf-8"?>
<!-- Generator: Adobe Illustrator 25.1.0, SVG Export Plug-In . SVG Version: 6.00 Build 0)  -->
<svg version="1.1" id="Layer_1" xmlns="http://www.w3.org/2000/svg" xmlns:xlink="http://www.w3.org/1999/xlink" x="0px" y="0px"
	 viewBox="0 0 174 26" style="enable-background:new 0 0 174 26;" xml:space="preserve">
<style type="text/css">
	.st0{fill:none;}
	.st1{enable-background:new    ;}
	.st2{fill:#31398E;}
	.st3{fill:#4688C8;}
	.st4{fill:#FFFFFF;}
</style>
<rect x="83.2" y="14.3" class="st0" width="33.6" height="2.3"/>
<rect x="43" y="4.1" class="st0" width="125.6" height="18.3"/>
<g>
	<g class="st1">
		<path class="st2" d="M48.4,20.4h-3.6V5h3.6V20.4z M55.6,14.1h-7.5v-3h7.5V14.1z M55.4,5h3.6v15.4h-3.6V5z"/>
		<path class="st2" d="M68.2,20.5c-1.3,0-2.5-0.3-3.5-0.8c-1-0.5-1.8-1.2-2.4-2.2c-0.6-0.9-0.8-2-0.8-3.1c0-1.2,0.3-2.2,0.8-3.1
			c0.5-0.9,1.3-1.6,2.2-2.2c1-0.5,2-0.8,3.2-0.8c1.2,0,2.2,0.2,3.1,0.7c0.9,0.5,1.7,1.2,2.2,2.1c0.5,0.9,0.8,2,0.8,3.3
			c0,0.1,0,0.3,0,0.5s0,0.3,0,0.5h-9.6v-2h7.8L70.7,14c0-0.6-0.1-1.1-0.4-1.6c-0.2-0.5-0.6-0.8-1-1.1c-0.4-0.3-1-0.4-1.5-0.4
			c-0.6,0-1.1,0.1-1.6,0.4c-0.4,0.3-0.8,0.6-1,1.1s-0.4,1-0.4,1.6v0.5c0,0.7,0.1,1.2,0.4,1.7c0.3,0.5,0.7,0.9,1.2,1.1
			c0.5,0.3,1.1,0.4,1.8,0.4c0.6,0,1.2-0.1,1.6-0.3c0.5-0.2,0.9-0.5,1.3-0.9l1.8,2c-0.5,0.6-1.2,1.1-2,1.4S69.3,20.5,68.2,20.5z"/>
		<path class="st2" d="M79.9,20.5c-0.9,0-1.7-0.2-2.4-0.5c-0.7-0.3-1.2-0.7-1.5-1.3c-0.4-0.5-0.5-1.2-0.5-1.8c0-0.7,0.2-1.3,0.5-1.8
			c0.3-0.5,0.9-0.9,1.6-1.2c0.7-0.3,1.7-0.4,2.9-0.4h3.1v2h-2.8c-0.8,0-1.4,0.1-1.7,0.4c-0.3,0.3-0.5,0.6-0.5,1c0,0.4,0.2,0.8,0.5,1
			c0.3,0.3,0.8,0.4,1.4,0.4s1.1-0.1,1.6-0.4c0.5-0.3,0.8-0.7,1-1.2l0.5,1.6c-0.2,0.7-0.7,1.3-1.4,1.7S80.9,20.5,79.9,20.5z
			 M83.5,20.4v-2.3l-0.2-0.5v-4.1c0-0.7-0.2-1.3-0.7-1.7c-0.4-0.4-1.1-0.6-2.1-0.6c-0.6,0-1.3,0.1-1.9,0.3c-0.6,0.2-1.1,0.5-1.6,0.8
			l-1.2-2.4c0.6-0.5,1.4-0.8,2.3-1.1c0.9-0.2,1.8-0.4,2.8-0.4c1.8,0,3.2,0.4,4.2,1.3c1,0.9,1.5,2.2,1.5,4v6.8H83.5z"/>
		<path class="st2" d="M89.8,20.4V4h3.4v16.3H89.8z"/>
		<path class="st2" d="M95,11.4V8.8h8.2v2.6H95z M101.3,20.5c-1.4,0-2.5-0.4-3.3-1.1c-0.8-0.7-1.2-1.8-1.2-3.2V5.9h3.5v10.3
			c0,0.5,0.1,0.9,0.4,1.2s0.6,0.4,1,0.4c0.6,0,1-0.1,1.4-0.4l0.9,2.4c-0.3,0.2-0.8,0.4-1.2,0.6C102.3,20.5,101.8,20.5,101.3,20.5z"
			/>
		<path class="st2" d="M113.2,8.4c0.9,0,1.8,0.2,2.5,0.6c0.7,0.4,1.3,0.9,1.7,1.7c0.4,0.8,0.6,1.8,0.6,3v6.8h-3.4v-6.2
			c0-1-0.2-1.7-0.6-2.1c-0.4-0.5-1-0.7-1.8-0.7c-0.5,0-1,0.1-1.5,0.4c-0.4,0.2-0.8,0.6-1,1c-0.2,0.5-0.4,1.1-0.4,1.8v5.9H106V4h3.4
			v7.8l-0.8-1c0.4-0.8,1-1.4,1.8-1.8C111.3,8.6,112.2,8.4,113.2,8.4z"/>
		<path class="st3" d="M121.4,20.4V5h3.6v12.5h7.7v2.9H121.4z"/>
		<path class="st3" d="M136.2,6.9c-0.6,0-1.2-0.2-1.6-0.5C134.2,6,134,5.5,134,5c0-0.5,0.2-1,0.6-1.4c0.4-0.4,0.9-0.6,1.6-0.6
			c0.6,0,1.1,0.2,1.6,0.5s0.6,0.8,0.6,1.3c0,0.6-0.2,1-0.6,1.4C137.4,6.7,136.8,6.9,136.2,6.9z M134.5,20.4V8.5h3.4v11.8H134.5z"/>
		<path class="st3" d="M148.3,8.4c0.9,0,1.8,0.2,2.5,0.6c0.7,0.4,1.3,0.9,1.7,1.7c0.4,0.8,0.6,1.8,0.6,3v6.8h-3.4v-6.2
			c0-1-0.2-1.7-0.6-2.1c-0.4-0.5-1-0.7-1.8-0.7c-0.5,0-1,0.1-1.5,0.4c-0.4,0.2-0.8,0.6-1,1c-0.2,0.5-0.4,1.1-0.4,1.8v5.9h-3.4V8.5
			h3.3v3.3l-0.6-1c0.4-0.8,1-1.4,1.8-1.8C146.4,8.6,147.3,8.4,148.3,8.4z"/>
		<path class="st3" d="M162.2,20.5c-1.3,0-2.5-0.3-3.5-0.8c-1-0.5-1.8-1.2-2.4-2.2c-0.6-0.9-0.8-2-0.8-3.1c0-1.2,0.3-2.2,0.8-3.1
			c0.5-0.9,1.3-1.6,2.2-2.2c1-0.5,2-0.8,3.2-0.8c1.2,0,2.2,0.2,3.1,0.7c0.9,0.5,1.7,1.2,2.2,2.1c0.5,0.9,0.8,2,0.8,3.3
			c0,0.1,0,0.3,0,0.5s0,0.3,0,0.5h-9.6v-2h7.8l-1.3,0.6c0-0.6-0.1-1.1-0.4-1.6c-0.2-0.5-0.6-0.8-1-1.1c-0.4-0.3-1-0.4-1.5-0.4
			s-1.1,0.1-1.6,0.4c-0.4,0.3-0.8,0.6-1,1.1c-0.2,0.5-0.4,1-0.4,1.6v0.5c0,0.7,0.1,1.2,0.4,1.7c0.3,0.5,0.7,0.9,1.2,1.1
			c0.5,0.3,1.1,0.4,1.8,0.4c0.6,0,1.2-0.1,1.6-0.3c0.5-0.2,0.9-0.5,1.3-0.9l1.8,2c-0.5,0.6-1.2,1.1-2,1.4S163.2,20.5,162.2,20.5z"/>
	</g>
</g>
<g id="CUSTOM-group">
	<path class="st4" d="M11.8,19.9l5.8-5.7c0,0,0.9-6.7-5.8-4.1l-0.8,0.5c0,0-3.3-3-5.3,0.4s4.2,8.2,4.2,8.2L11.8,19.9z"/>
	<path class="st4" d="M25.4,11.6h-3.2c0,0,0.1,2.7,1.6,2.6C25.3,14,25.4,11.6,25.4,11.6z"/>
	<path class="st2" d="M5.6,9.8C4,11.4,4,14,5.6,15.7l5,5v2.7c0,1.7,1.4,3,3,2.8c1.4-0.1,2.5-1.3,2.5-2.7v-1c0-0.9,0.8-1.6,1.7-1.3
		c0.2,0.1,0.5,0.2,0.6,0.4c0.3,0.3,0.4,0.6,0.4,1v0.8c0,1.4,1.2,2.8,2.6,2.9c1.7,0.2,3.1-1.2,3.1-2.8v-8.6c0.9-0.3,1.6-1.1,1.7-2.1
		l0.2-1.5c1.8-0.9,3-2.6,3.3-4.6l0.4-2.5c0-0.1,0-0.3,0-0.4c0-1.5-1.2-2.7-2.7-2.7H27V0.8c0-0.1-0.1-0.2-0.1-0.3
		c-0.6-0.6-1.4-0.1-1.4,0.5v2c0,0.6,0.7,1.1,1.4,0.5C27,3.4,27,3.3,27,3.2V2.8h0.4c0.6,0,1.1,0.5,1.1,1.1c0,0.1,0,0.1,0,0.2
		l-0.4,2.4c-0.4,2.4-2.6,4.1-5,3.8c-2-0.3-3.5-1.8-3.8-3.8L19,4c-0.1-0.4,0.1-0.8,0.5-1.2c0.1-0.1,0.3-0.1,0.4-0.1h0.6v0.4
		c0,0.1,0.1,0.3,0.2,0.3C21.3,4.1,22,3.6,22,3V0.8c0-0.1-0.1-0.3-0.2-0.3c-0.6-0.6-1.4-0.1-1.4,0.5v0.3H20c-1.5,0-2.7,1.2-2.7,2.7
		c0,0.1,0,0.3,0,0.4l0.4,2.5c0.3,2,1.6,3.7,3.4,4.6l0.2,1.5c0.1,1,0.8,1.8,1.7,2.1v8.5c0,0.7-0.7,1.3-1.4,1.3
		c-0.7,0-1.3-0.6-1.3-1.3v-0.8c0-1.7-1.4-3-3-2.8c-1.4,0.1-2.5,1.3-2.5,2.7v1c0,0.7-0.7,1.3-1.4,1.3c-0.7,0-1.3-0.6-1.3-1.3v-2.7
		l5-5c1.6-1.6,1.6-4.2,0-5.8c-1.6-1.6-4.1-1.6-5.7-0.1C9.8,8.2,7.2,8.2,5.6,9.8z M22.8,12.7l-0.1-0.8c0.7,0.1,1.4,0.1,2.1,0
		l-0.1,0.8c-0.1,0.5-0.6,0.9-1.1,0.8C23.2,13.4,22.9,13.1,22.8,12.7z M10.6,15.1c-0.2-0.6,0.3-1.1,0.9-1c0.3,0.1,0.5,0.3,0.6,0.6
		c0.1,0.5-0.3,0.9-0.8,0.9l0,0C11,15.6,10.7,15.4,10.6,15.1z M6.7,10.9c1-1,2.7-1,3.7,0l0.5,0.5c0.3,0.3,0.8,0.3,1.1,0l0,0l0.5-0.5
		c1.1-1,2.7-1,3.7,0.1c1,1,1,2.6,0,3.6l-4,4V17c1.3-0.5,1.9-1.9,1.3-3.1c-0.5-0.9-1.5-1.4-2.5-1.2c-1.3,0.3-2.1,1.7-1.6,2.9
		c0.2,0.6,0.7,1.2,1.4,1.4v1.6l-4-4C5.6,13.6,5.6,11.9,6.7,10.9z"/>
</g>
</svg>
